# xmcd
#
# Track frame offsets: 
#        150
#        27107
#        41147
#        52205
#        65145
#        77437
#        88090
#        99372
#        109822
#        120575
#        134162
#        146540
#        158967
#        173840
#        192382
#        210027
#        223977
#        236710
#        245640
#        258787
#        269985
#        284320
#        296432
#        311960
#        325597
#
# Disc length: 4542 seconds
#
# Revision: 3
# Processed by: cddbd v1.5.2PL0 Copyright (c) Steve Scherf et al.
# Submitted via: ExactAudioCopyFreeDBPlugin 1.0
#
DISCID=8711bc19
DTITLE=Various Artist - Rites of Rhythm and Blues:  Rhythm and Blues Foun
DTITLE=dation Pioneer Awards
DYEAR=1993
DGENRE=Rhythm and Blues
TTITLE0=James Brown - Living in America
TTITLE1=Lowell Fulson - Tramp
TTITLE2=Wilson Pickett - Land of 1000 Dances
TTITLE3=Solomon Burke - Everybody Needs Somebody to Love
TTITLE4=Martha and The Vandellas - Dancing in the Streets
TTITLE5=Carla Thomas - Gee Whiz
TTITLE6=Brook Benton - Fools Rush In
TTITLE7=Little Anthony and The Imperials - Tears on My Pillow
TTITLE8=Jimmy Witherspoon - Ain't Nobody's Business If I Do
TTITLE9=Big Joe Turner - Shake, Rattle and Roll
TTITLE10=Floyd Dixon - Wine, Wine, Wine
TTITLE11=Hadda Brooks - That's My Desire
TTITLE12=Erksine Hawkins and His Orchestra - Tuxedo Junction
TTITLE13=Z.Z. Hill - Friday is My Day
TTITLE14=Bobby Bland - Walkin' and Talkin' and Singin' the Blues
TTITLE15=Wilson Pickett - Mustang Sally
TTITLE16=Carla Thomas - B-A-B-Y
TTITLE17=Solomon Burke - Got to Get You Off My Mind
TTITLE18=Martha and The Vandellas - Nowhere to Run
TTITLE19=Little Anthony and The Imperials - Goin' Out of My Head
TTITLE20=Lowell Fulson - Reconsider Baby
TTITLE21=Floyd Dixon - Tired, Broke and Busted
TTITLE22=Jimmy Witherspoon - No Rollin' Blues
TTITLE23=Hadda Brooks - Trust in Me
TTITLE24=Erskin Hawkins and His Orchestra - After Hours
EXTD=
EXTT0=
EXTT1=
EXTT2=
EXTT3=
EXTT4=
EXTT5=
EXTT6=
EXTT7=
EXTT8=
EXTT9=
EXTT10=
EXTT11=
EXTT12=
EXTT13=
EXTT14=
EXTT15=
EXTT16=
EXTT17=
EXTT18=
EXTT19=
EXTT20=
EXTT21=
EXTT22=
EXTT23=
EXTT24=
PLAYORDER=
